Coordinates
version=1
nRows=26
nColumns=22
inDegrees=yes

Units are S.I. units (second, meters, Newtons, ...)
If the header above contains a line with 'inDegrees', this indicates whether rotational values are in degrees (yes) or radians (no).

endheader
time	pelvis_tilt	pelvis_list	pelvis_rotation	pelvis_tx	pelvis_ty	pelvis_tz	hip_flexion_r	hip_adduction_r	hip_rotation_r	knee_angle_r	ankle_angle_r	subtalar_angle_r	hip_flexion_l	hip_adduction_l	hip_rotation_l	knee_angle_l	ankle_angle_l	subtalar_angle_l	lumbar_extension	lumbar_bending	lumbar_rotation
      3.95000000	      5.92401415	      0.33265927	     78.82760074	      0.50886044	      0.94371999	     -0.69471919	     15.24322478	      8.86069619	      0.10869177	    -20.91830583	      4.90655855	     -0.86796784	     13.49488229	     -6.83004317	      1.32704939	    -59.73738881	      7.01828103	      2.02523162	     -6.58162007	      4.25100851	     -1.59420945
      3.96000000	      5.85474363	      0.43770595	     78.98184995	      0.51122715	      0.94436709	     -0.69895528	     14.81196362	      8.87848749	      0.05617672	    -20.87641814	      5.17084101	     -1.13432806	     13.86837033	     -6.90116140	      0.99283190	    -59.28183041	      7.51898143	      1.59407502	     -6.65077940	      4.12111941	     -1.47334462
      3.97000000	      5.78159392	      0.53654323	     79.15673954	      0.51344899	      0.94497204	     -0.70309169	     14.38899162	      8.88076893	     -0.01608321	    -20.82036067	      5.43139182	     -1.36972311	     14.19295210	     -6.93760821	      0.70790348	    -58.66354452	      8.05142192	      1.27084133	     -6.71618770	      3.99339255	     -1.35788202
      3.98000000	      5.71006139	      0.57739920	     79.36509649	      0.51551437	      0.94544237	     -0.70712075	     14.04087279	      8.88099377	     -0.11621357	    -20.76892080	      5.68377536	     -1.47422894	     14.53738321	     -6.95364632	      0.48639907	    -57.91386054	      8.65344360	      1.07239482	     -6.71675552	      3.88894853	     -1.26898798
      3.99000000	      5.63893544	      0.72089405	     79.54616129	      0.51754418	      0.94607638	     -0.71110511	     13.56977141	      8.86196365	     -0.22187917	    -20.69026724	      5.93836676	     -1.73802634	     14.67774269	     -6.95936897	      0.20969123	    -56.97403234	      9.19085524	      0.84889721	     -6.83912535	      3.75671235	     -1.14388145
      4.00000000	      5.58025825	      0.73340205	     79.77465201	      0.51940329	      0.94644361	     -0.71493075	     13.27100977	      8.86461764	     -0.36155776	    -20.64540613	      6.16009521	     -1.83841130	     14.94218183	     -6.97531122	      0.01263727	    -55.95937361	      9.80534331	      0.70926168	     -6.81921838	      3.67660535	     -1.05713260
      4.01000000	      5.52039196	      0.84018237	     79.98365688	      0.52121110	      0.94695956	     -0.71870935	     12.85821886	      8.84716451	     -0.50780682	    -20.57218607	      6.40631153	     -2.04677690	     15.02246036	     -6.98934928	     -0.24016572	    -54.78859990	     10.35874212	      0.64385306	     -6.91055249	      3.57080994	     -0.94591094
      4.02000000	      5.47027770	      0.81336505	     80.22777936	      0.52288261	      0.94720746	     -0.72230670	     12.62402795	      8.85551917	     -0.67017756	    -20.53515210	      6.59756152	     -2.13026157	     15.23321750	     -7.02574055	     -0.43733738	    -53.56727026	     10.96584796	      0.55404793	     -6.85993391	      3.50893414	     -0.86542810
      4.03000000	      5.41390686	      0.88052763	     80.45729262	      0.52447415	      0.94760539	     -0.72588049	     12.27430686	      8.83959292	     -0.81820759	    -20.47038641	      6.81726748	     -2.32895240	     15.26549241	     -7.06048894	     -0.69651580	    -52.21745280	     11.52648849	      0.56747037	     -6.91386096	      3.42338963	     -0.76581496
      4.04000000	      5.36397914	      0.86457647	     80.70555956	      0.52597510	      0.94781983	     -0.72930079	     12.04628847	      8.84029660	     -0.98730772	    -20.44299562	      7.02884718	     -2.47075879	     15.36945197	     -7.13092041	     -0.96204809	    -50.83027638	     12.10537311	      0.51138928	     -6.88194924	      3.36129363	     -0.69635378
      4.05000000	      5.31926371	      0.79157899	     80.97428149	      0.52736233	      0.94791377	     -0.73259987	     11.90151780	      8.84981402	     -1.16613483	    -20.43674821	      7.19639566	     -2.54565805	     15.51257083	     -7.22490296	     -1.23443001	    -49.40832835	     12.70342901	      0.39376171	     -6.78874481	      3.31993769	     -0.65630068
      4.06000000	      5.25864340	      0.80297108	     81.22060234	      0.52870432	      0.94814293	     -0.73587719	     11.65166569	      8.83262890	     -1.31503879	    -20.40145891	      7.41645075	     -2.72705101	     15.50304483	     -7.32040623	     -1.61072237	    -47.91071883	     13.23992724	      0.23611574	     -6.78630751	      3.24078525	     -0.59809966
      4.07000000	      5.21444037	      0.71644901	     81.50005702	      0.52991553	      0.94817585	     -0.73901312	     11.54277496	      8.83773823	     -1.50793491	    -20.40951400	      7.57584088	     -2.80861020	     15.60580680	     -7.44936740	     -1.98014856	    -46.44227213	     13.83535223	      0.04543554	     -6.67814293	      3.20427052	     -0.59347007
      4.08000000	      5.13945488	      0.73349774	     81.74017257	      0.53109740	      0.94839034	     -0.74213378	     11.30394582	      8.80311008	     -1.63606960	    -20.38067485	      7.79087179	     -3.01142602	     15.53571838	     -7.55346477	     -2.47280698	    -44.92191648	     14.30528857	     -0.31309731	     -6.68085814	      3.10895986	     -0.56256214
      4.09000000	      5.07003272	      0.69633528	     81.99970692	      0.53214056	      0.94849138	     -0.74515177	     11.14409082	      8.77218203	     -1.79842067	    -20.37201150	      7.99513390	     -3.15680106	     15.52975561	     -7.65710738	     -2.95665919	    -43.45835381	     14.79650791	     -0.65788987	     -6.62323204	      3.03664655	     -0.55270666
      4.10000000	      4.98855938	      0.67386689	     82.25524296	      0.53307274	      0.94861816	     -0.74810745	     10.97512212	      8.72204793	     -1.94942653	    -20.36512420	      8.19261676	     -3.28807083	     15.49439983	     -7.73323394	     -3.46508329	    -42.03513102	     15.23904640	     -1.01526332	     -6.57750961	      2.95532266	     -0.55831232
      4.11000000	      4.89812678	      0.66312582	     82.50816733	      0.53391638	      0.94876502	     -0.75098479	     10.80007934	      8.65741163	     -2.09925880	    -20.35699072	      8.38078458	     -3.41183572	     15.43980098	     -7.77805997	     -3.96995390	    -40.67369749	     15.63579673	     -1.37551971	     -6.54514814	      2.86242257	     -0.58162076
      4.12000000	      4.80005075	      0.65319541	     82.76310024	      0.53464900	      0.94891031	     -0.75379889	     10.63111451	      8.57796489	     -2.25274273	    -20.35138177	      8.57729631	     -3.51578000	     15.38377663	     -7.78438665	     -4.43712352	    -39.39399035	     15.98536561	     -1.69472699	     -6.50949959	      2.76625995	     -0.60799582
      4.13000000	      4.70006421	      0.66090590	     83.01399135	      0.53531132	      0.94908870	     -0.75652730	     10.44687533	      8.49273426	     -2.39622116	    -20.34115857	      8.75052256	     -3.61707305	     15.30689516	     -7.76114163	     -4.86564005	    -38.19953118	     16.25135571	     -2.02339763	     -6.49549121	      2.66374503	     -0.65928778
      4.14000000	      4.59576421	      0.66610605	     83.26747488	      0.53585898	      0.94925600	     -0.75919447	     10.27232550	      8.39507682	     -2.54618099	    -20.33541071	      8.92985604	     -3.70015751	     15.23559621	     -7.70112970	     -5.22724512	    -37.10397165	     16.45920626	     -2.32370168	     -6.47346208	      2.56524965	     -0.71265159
      4.15000000	      4.49970703	      0.66614182	     83.51854256	      0.53635099	      0.94941184	     -0.76177882	     10.10466695	      8.30333792	     -2.70513488	    -20.32246726	      9.10842838	     -3.76526439	     15.17008476	     -7.62263700	     -5.50273826	    -36.10578442	     16.58217980	     -2.60952233	     -6.44600406	      2.47262036	     -0.75842410
      4.16000000	      4.41139748	      0.65978547	     83.76843202	      0.53676856	      0.94954679	     -0.76429026	      9.94948062	      8.21452795	     -2.87308450	    -20.31182305	      9.28229881	     -3.81166756	     15.11323264	     -7.52719777	     -5.69327515	    -35.20904243	     16.62248910	     -2.88033247	     -6.41000522	      2.39235571	     -0.80763372
      4.17000000	      4.34622823	      0.65696301	     84.01179584	      0.53714318	      0.94968300	     -0.76672881	      9.77977375	      8.15013905	     -3.02835140	    -20.27756866	      9.42344104	     -3.84344620	     15.05076172	     -7.43950658	     -5.81458418	    -34.41018229	     16.53713173	     -3.23575788	     -6.38035702	      2.33638388	     -0.87079684
      4.18000000	      4.27416835	      0.61845147	     84.25361474	      0.53743933	      0.94973472	     -0.76906895	      9.66803395	      8.07485435	     -3.19821008	    -20.26556191	      9.58076960	     -3.85998063	     15.03186842	     -7.31833630	     -5.82035111	    -33.71443460	     16.38666756	     -3.40710035	     -6.30969478	      2.27782738	     -0.93490823
      4.19000000	      4.24145752	      0.60351383	     84.47924287	      0.53769737	      0.94981046	     -0.77136414	      9.50573673	      8.03814407	     -3.36818894	    -20.20745506	      9.72766403	     -3.85095294	     14.97663178	     -7.22256642	     -5.75837840	    -33.10986668	     16.04978509	     -3.85171830	     -6.26996492	      2.25973971	     -0.97438460
      4.20000000	      4.19490978	      0.55901466	     84.69888010	      0.53786984	      0.94980395	     -0.77355473	      9.40077855	      7.97953698	     -3.56926492	    -20.18009773	      9.88270605	     -3.84495414	     14.95802926	     -7.09108956	     -5.59150941	    -32.60892274	     15.63987889	     -4.04528942	     -6.19922478	      2.23126220	     -1.01129673
